<?xml version="1.0" encoding="utf-8"?>
<!-- Svg Vector Icons : http://www.onlinewebfonts.com/icon -->
<!DOCTYPE svg PUBLIC "-//W3C//DTD SVG 1.1//EN" "http://www.w3.org/Graphics/SVG/1.1/DTD/svg11.dtd">
<svg version="1.1" xmlns="http://www.w3.org/2000/svg" xmlns:xlink="http://www.w3.org/1999/xlink" x="0px" y="0px" viewBox="0 0 1000 1000" enable-background="new 0 0 1000 1000" xml:space="preserve">
<metadata> Svg Vector Icons : http://www.onlinewebfonts.com/icon </metadata>
<g><path fill="#ffffff" d="M10,500c0,270.6,219.4,490,490,490s490-219.4,490-490c0-270.7-219.4-490-490-490S10,229.3,10,500z M71.3,500c0-236.8,192-428.8,428.8-428.8c236.9,0,428.8,192,428.8,428.8c0,236.7-191.9,428.8-428.8,428.8C263.3,928.8,71.3,736.7,71.3,500z"/><path fill="#ffffff" d="M211,454.1h490v91.9H211V454.1z"/><path fill="#ffffff" d="M452.2,285.6h122.5l214.4,219L574.7,714.4H452.2l214.4-209.8L452.2,285.6z"/></g>
</svg>
